<?xml version="1.0" encoding="UTF-8" standalone="no"?>
<svg
   xmlns:dc="http://purl.org/dc/elements/1.1/"
   xmlns:cc="http://creativecommons.org/ns#"
   xmlns:rdf="http://www.w3.org/1999/02/22-rdf-syntax-ns#"
   xmlns:svg="http://www.w3.org/2000/svg"
   xmlns="http://www.w3.org/2000/svg"
   xmlns:sodipodi="http://sodipodi.sourceforge.net/DTD/sodipodi-0.dtd"
   xmlns:inkscape="http://www.inkscape.org/namespaces/inkscape"
   version="1.1"
   id="server_1"
   x="0px"
   y="0px"
   viewBox="0 0 128 128"
   xml:space="preserve"
   sodipodi:docname="server-off.svg"
   inkscape:version="0.92.3 (2405546, 2018-03-11)"
   width="128"
   height="128"
   inkscape:export-xdpi="96"
   inkscape:export-ydpi="96"><metadata
   id="metadata109"><rdf:RDF><cc:Work
       rdf:about=""><dc:format>image/svg+xml</dc:format><dc:type
         rdf:resource="http://purl.org/dc/dcmitype/StillImage" /><dc:title /></cc:Work></rdf:RDF></metadata><defs
   id="defs107" /><sodipodi:namedview
   pagecolor="#ffffff"
   bordercolor="#666666"
   borderopacity="1"
   objecttolerance="10"
   gridtolerance="10"
   guidetolerance="10"
   inkscape:pageopacity="0"
   inkscape:pageshadow="2"
   inkscape:window-width="1351"
   inkscape:window-height="1037"
   id="namedview105"
   showgrid="false"
   inkscape:zoom="4.0689655"
   inkscape:cx="51.862304"
   inkscape:cy="60.067797"
   inkscape:window-x="290"
   inkscape:window-y="56"
   inkscape:window-maximized="0"
   inkscape:current-layer="g4863"
   inkscape:pagecheckerboard="false"
   showguides="false" />

<g
   id="g4863"><path
     style="fill:#cccccc;fill-opacity:1;stroke:#101318;stroke-width:3.85531688;stroke-miterlimit:4;stroke-dasharray:none;stroke-opacity:1"
     d="M 13.150789,116.07234 H 114.84753 c 3.98904,0 7.22514,-4.09483 7.22514,-9.14242 V 77.070083 c 0,-5.047591 -3.2361,-9.142424 -7.22514,-9.142424 H 13.152799 c -3.9910497,0 -7.2251397,4.094833 -7.2251397,9.142424 v 29.857307 c -0.002,5.05012 3.23409,9.14495 7.2231297,9.14495 z"
     id="path2400"
     inkscape:connector-curvature="0"
     inkscape:export-xdpi="96"
     inkscape:export-ydpi="96" /><circle
     r="15.004885"
     style="fill:#6681ba;fill-opacity:1;stroke:#404960;stroke-width:1.99023116;stroke-miterlimit:4;stroke-dasharray:none;stroke-opacity:1"
     cx="-96.000328"
     cy="92"
     id="circle2402"
     transform="scale(-1,1)" /><path
     inkscape:export-ydpi="96"
     inkscape:export-xdpi="96"
     inkscape:connector-curvature="0"
     id="path2443"
     d="M 13.150789,66.07234 H 114.84753 c 3.98904,0 7.22514,-4.09483 7.22514,-9.14242 V 27.070083 c 0,-5.047591 -3.2361,-9.142424 -7.22514,-9.142424 H 13.152799 c -3.9910497,0 -7.2251397,4.094833 -7.2251397,9.142424 V 56.92739 c -0.002,5.05012 3.23409,9.14495 7.2231297,9.14495 z"
     style="fill:#cccccc;fill-opacity:1;stroke:#101318;stroke-width:3.85531688;stroke-miterlimit:4;stroke-dasharray:none;stroke-opacity:1" /><circle
     id="circle2445"
     cy="42"
     cx="-96.000328"
     style="fill:#6681ba;fill-opacity:1;stroke:#404960;stroke-width:1.99023116;stroke-miterlimit:4;stroke-dasharray:none;stroke-opacity:1"
     r="15.004885"
     transform="scale(-1,1)" /><g
     id="g2551"><circle
       transform="scale(-1,1)"
       id="circle2406"
       cy="96"
       cx="-67.000328"
       style="fill:#6681ba;fill-opacity:1;stroke-width:3"
       r="3" /><circle
       transform="scale(-1,1)"
       r="3"
       style="fill:#6681ba;fill-opacity:1;stroke-width:3"
       cx="-61.000328"
       cy="104"
       id="circle2416" /><circle
       transform="scale(-1,1)"
       id="circle2418"
       cy="96"
       cx="-55.000328"
       style="fill:#6681ba;fill-opacity:1;stroke-width:3"
       r="3" /><circle
       transform="scale(-1,1)"
       r="3"
       style="fill:#6681ba;fill-opacity:1;stroke-width:3"
       cx="-49.000328"
       cy="104"
       id="circle2420" /><circle
       transform="scale(-1,1)"
       id="circle2422"
       cy="96"
       cx="-43.000328"
       style="fill:#6681ba;fill-opacity:1;stroke-width:3"
       r="3" /><circle
       transform="scale(-1,1)"
       r="3"
       style="fill:#6681ba;fill-opacity:1;stroke-width:3"
       cx="-37.000328"
       cy="104"
       id="circle2424" /><circle
       transform="scale(-1,1)"
       id="circle2426"
       cy="96"
       cx="-31.00033"
       style="fill:#6681ba;fill-opacity:1;stroke-width:3"
       r="3" /><circle
       transform="scale(-1,1)"
       r="3"
       style="fill:#6681ba;fill-opacity:1;stroke-width:3"
       cx="-25.00033"
       cy="104"
       id="circle2428" /><circle
       transform="scale(-1,1)"
       id="circle2430"
       cy="104"
       cx="-73.000328"
       style="fill:#6681ba;fill-opacity:1;stroke-width:3"
       r="3" /><circle
       transform="scale(-1,1)"
       id="circle2467"
       cy="96"
       cx="-19.00033"
       style="fill:#6681ba;fill-opacity:1;stroke-width:3"
       r="3" /><circle
       r="3"
       style="fill:#6681ba;fill-opacity:1;stroke-width:3"
       cx="-67.000328"
       cy="80"
       id="circle2469"
       transform="scale(-1,1)" /><circle
       id="circle2471"
       cy="88"
       cx="-61.000328"
       style="fill:#6681ba;fill-opacity:1;stroke-width:3"
       r="3"
       transform="scale(-1,1)" /><circle
       r="3"
       style="fill:#6681ba;fill-opacity:1;stroke-width:3"
       cx="-55.000328"
       cy="80"
       id="circle2473"
       transform="scale(-1,1)" /><circle
       id="circle2475"
       cy="88"
       cx="-49.000328"
       style="fill:#6681ba;fill-opacity:1;stroke-width:3"
       r="3"
       transform="scale(-1,1)" /><circle
       r="3"
       style="fill:#6681ba;fill-opacity:1;stroke-width:3"
       cx="-43.000328"
       cy="80"
       id="circle2477"
       transform="scale(-1,1)" /><circle
       id="circle2479"
       cy="88"
       cx="-37.000328"
       style="fill:#6681ba;fill-opacity:1;stroke-width:3"
       r="3"
       transform="scale(-1,1)" /><circle
       r="3"
       style="fill:#6681ba;fill-opacity:1;stroke-width:3"
       cx="-31.00033"
       cy="80"
       id="circle2481"
       transform="scale(-1,1)" /><circle
       id="circle2483"
       cy="88"
       cx="-25.00033"
       style="fill:#6681ba;fill-opacity:1;stroke-width:3"
       r="3"
       transform="scale(-1,1)" /><circle
       r="3"
       style="fill:#6681ba;fill-opacity:1;stroke-width:3"
       cx="-73.000328"
       cy="88"
       id="circle2485"
       transform="scale(-1,1)" /><circle
       r="3"
       style="fill:#6681ba;fill-opacity:1;stroke-width:3"
       cx="-19.00033"
       cy="80"
       id="circle2487"
       transform="scale(-1,1)" /></g><g
     id="g2593"
     transform="translate(0,-50)"><circle
       r="3"
       style="fill:#6681ba;fill-opacity:1;stroke-width:3"
       cx="-67.000328"
       cy="96"
       id="circle2553"
       transform="scale(-1,1)" /><circle
       id="circle2555"
       cy="104"
       cx="-61.000328"
       style="fill:#6681ba;fill-opacity:1;stroke-width:3"
       r="3"
       transform="scale(-1,1)" /><circle
       r="3"
       style="fill:#6681ba;fill-opacity:1;stroke-width:3"
       cx="-55.000328"
       cy="96"
       id="circle2557"
       transform="scale(-1,1)" /><circle
       id="circle2559"
       cy="104"
       cx="-49.000328"
       style="fill:#6681ba;fill-opacity:1;stroke-width:3"
       r="3"
       transform="scale(-1,1)" /><circle
       r="3"
       style="fill:#6681ba;fill-opacity:1;stroke-width:3"
       cx="-43.000328"
       cy="96"
       id="circle2561"
       transform="scale(-1,1)" /><circle
       id="circle2563"
       cy="104"
       cx="-37.000328"
       style="fill:#6681ba;fill-opacity:1;stroke-width:3"
       r="3"
       transform="scale(-1,1)" /><circle
       r="3"
       style="fill:#6681ba;fill-opacity:1;stroke-width:3"
       cx="-31.00033"
       cy="96"
       id="circle2565"
       transform="scale(-1,1)" /><circle
       id="circle2567"
       cy="104"
       cx="-25.00033"
       style="fill:#6681ba;fill-opacity:1;stroke-width:3"
       r="3"
       transform="scale(-1,1)" /><circle
       r="3"
       style="fill:#6681ba;fill-opacity:1;stroke-width:3"
       cx="-73.000328"
       cy="104"
       id="circle2569"
       transform="scale(-1,1)" /><circle
       r="3"
       style="fill:#6681ba;fill-opacity:1;stroke-width:3"
       cx="-19.00033"
       cy="96"
       id="circle2571"
       transform="scale(-1,1)" /><circle
       transform="scale(-1,1)"
       id="circle2573"
       cy="80"
       cx="-67.000328"
       style="fill:#6681ba;fill-opacity:1;stroke-width:3"
       r="3" /><circle
       transform="scale(-1,1)"
       r="3"
       style="fill:#6681ba;fill-opacity:1;stroke-width:3"
       cx="-61.000328"
       cy="88"
       id="circle2575" /><circle
       transform="scale(-1,1)"
       id="circle2577"
       cy="80"
       cx="-55.000328"
       style="fill:#6681ba;fill-opacity:1;stroke-width:3"
       r="3" /><circle
       transform="scale(-1,1)"
       r="3"
       style="fill:#6681ba;fill-opacity:1;stroke-width:3"
       cx="-49.000328"
       cy="88"
       id="circle2579" /><circle
       transform="scale(-1,1)"
       id="circle2581"
       cy="80"
       cx="-43.000328"
       style="fill:#6681ba;fill-opacity:1;stroke-width:3"
       r="3" /><circle
       transform="scale(-1,1)"
       r="3"
       style="fill:#6681ba;fill-opacity:1;stroke-width:3"
       cx="-37.000328"
       cy="88"
       id="circle2583" /><circle
       transform="scale(-1,1)"
       id="circle2585"
       cy="80"
       cx="-31.00033"
       style="fill:#6681ba;fill-opacity:1;stroke-width:3"
       r="3" /><circle
       transform="scale(-1,1)"
       r="3"
       style="fill:#6681ba;fill-opacity:1;stroke-width:3"
       cx="-25.00033"
       cy="88"
       id="circle2587" /><circle
       transform="scale(-1,1)"
       id="circle2589"
       cy="88"
       cx="-73.000328"
       style="fill:#6681ba;fill-opacity:1;stroke-width:3"
       r="3" /><circle
       transform="scale(-1,1)"
       id="circle2591"
       cy="80"
       cx="-19.00033"
       style="fill:#6681ba;fill-opacity:1;stroke-width:3"
       r="3" /></g></g>
<g
   id="g74"
   transform="translate(0,70)">
</g>
<g
   id="g76"
   transform="translate(0,70)">
</g>
<g
   id="g78"
   transform="translate(0,70)">
</g>
<g
   id="g80"
   transform="translate(0,70)">
</g>
<g
   id="g82"
   transform="translate(0,70)">
</g>
<g
   id="g84"
   transform="translate(0,70)">
</g>
<g
   id="g86"
   transform="translate(0,70)">
</g>
<g
   id="g88"
   transform="translate(0,70)">
</g>
<g
   id="g90"
   transform="translate(0,70)">
</g>
<g
   id="g92"
   transform="translate(0,70)">
</g>
<g
   id="g94"
   transform="translate(0,70)">
</g>
<g
   id="g96"
   transform="translate(0,70)">
</g>
<g
   id="g98"
   transform="translate(0,70)">
</g>
<g
   id="g100"
   transform="translate(0,70)">
</g>
<g
   id="g102"
   transform="translate(0,70)">
</g>
</svg>
